<svg width="152" height="137" viewBox="0 0 152 137" fill="none" xmlns="http://www.w3.org/2000/svg">
<path d="M92.9117 57.8834C86.8904 61.4364 80.643 66.1124 74.6868 72.2027C62.5522 84.7091 56.8912 98.0089 54.2274 105.809C57.6156 104.919 62.2878 103.505 67.715 101.236C76.0053 97.7137 86.0357 92.1485 95.7058 83.2948C110.443 69.8647 117.583 55.1852 120.837 47.052C115.345 48.2057 104.621 50.9691 92.9117 57.8834Z" fill="#F9B53F"/>
<path d="M4.39362 104.494C3.89919 102.781 4.88805 100.972 6.59747 100.443L19.8551 96.5601C21.5645 96.0656 23.3736 97.0545 23.8987 98.7639C24.3931 100.477 23.4081 102.286 21.6948 102.815L8.44104 106.698C8.14592 106.797 7.8163 106.832 7.51734 106.832C6.10304 106.832 4.82289 105.908 4.39362 104.494ZM30.5792 25.1323L24.3624 8.86981C23.7377 7.19105 24.5579 5.31299 26.2367 4.68824C27.9116 4.03284 29.7896 4.88755 30.4144 6.56631L36.6312 22.8288C37.2559 24.5037 36.4319 26.3818 34.7569 27.0065C34.3622 27.1369 33.9674 27.2365 33.6033 27.2365C32.3193 27.2365 31.0698 26.447 30.5792 25.1323ZM103.107 21.7403C101.597 20.7859 101.168 18.7431 102.122 17.2636L109.128 6.367C110.083 4.85305 112.122 4.42761 113.601 5.38198C115.115 6.33634 115.541 8.37538 114.59 9.85867L107.584 20.7514C106.959 21.7058 105.905 22.2347 104.851 22.2347C104.261 22.2654 103.667 22.1006 103.107 21.7403ZM83.4716 92.8078C84.0964 92.8078 84.7211 92.643 85.2807 92.2482C86.7601 91.2593 87.1549 89.2203 86.1699 87.737C83.7016 84.0499 78.4392 77.5341 71.1684 75.4261C62.5523 72.9578 54.4919 75.2958 46.6961 77.5341C44.5919 78.1282 42.618 78.7185 40.6096 79.1784C36.2364 80.2324 31.6294 81.0564 27.8464 79.8376C23.7377 78.523 20.2154 75.0313 17.3216 71.7734C16.1373 70.4243 14.0637 70.3247 12.7491 71.509C11.4 72.6971 11.3003 74.7707 12.4846 76.0853C15.9725 80.0024 20.2805 84.2492 25.8725 86.0276C31.1695 87.7063 36.8266 86.752 42.1235 85.468C44.2622 84.9391 46.4009 84.3488 48.4706 83.7241C55.7069 81.6467 62.5178 79.6728 69.3593 81.616C73.2419 82.7352 77.3852 86.2575 80.7733 91.2938C81.3981 92.2788 82.4176 92.8078 83.4716 92.8078Z" fill="#3BA27A"/>
<path d="M36.4013 121.182C34.6574 120.787 33.5382 119.043 33.933 117.299L35.742 109.3C36.1368 107.552 37.8807 106.468 39.6247 106.832C41.3686 107.227 42.4839 108.971 42.0891 110.715L40.2801 118.714C39.9543 120.227 38.6051 121.247 37.1218 121.247C36.8919 121.282 36.6312 121.247 36.4013 121.182ZM1.53445 63.6441C0.380785 62.2605 0.545594 60.2214 1.92923 59.0678C4.13308 57.1935 7.84705 54.821 13.0136 54.0315C18.9008 53.1116 23.7033 54.7904 26.0374 55.875C27.651 56.6339 28.3754 58.5733 27.6165 60.1869C26.8615 61.8005 24.9183 62.5249 23.3085 61.766C21.6297 60.9765 18.2109 59.7922 13.9987 60.4514C10.3499 61.011 7.68224 62.7204 6.10313 64.0734C5.51288 64.5985 4.75782 64.8284 4.03343 64.8284C3.07906 64.8284 2.1592 64.4337 1.53445 63.6441ZM95.7059 86.5527C96.6948 86.5527 97.6491 86.1272 98.2739 85.3032C99.3586 83.8889 99.0941 81.846 97.6798 80.7613C91.2331 75.7557 87.155 70.225 85.641 64.3033C83.832 57.2587 85.7752 51.0036 87.8449 44.3882C90.0832 37.1787 92.6474 29.0149 90.0832 19.3716C88.5348 13.4768 85.3804 8.01508 80.7389 3.14361C79.4894 1.85963 77.4504 1.79447 76.1702 3.04396C74.8863 4.29728 74.8211 6.33632 76.0706 7.6203C79.9532 11.7022 82.5825 16.2096 83.832 21.0159C85.9055 28.8501 83.832 35.4655 81.6626 42.445C79.4243 49.6544 77.0901 57.0939 79.3591 65.9131C81.2678 73.2874 86.101 80.0024 93.732 85.8934C94.3261 86.3572 95.016 86.5527 95.7059 86.5527Z" fill="#446DB7"/>
<path d="M117.679 37.6387C117.284 35.8948 118.373 34.1508 120.113 33.7561L130.247 31.4526C131.991 31.0578 133.731 32.1425 134.129 33.8864C134.52 35.6303 133.436 37.378 131.692 37.7728L121.562 40.0763C121.332 40.1415 121.067 40.1415 120.837 40.1415C119.358 40.1415 118.009 39.122 117.679 37.6387ZM95.7058 83.3293C99.9487 79.4773 103.536 75.5257 106.595 71.6738C109.163 68.4159 111.367 65.2232 113.206 62.2298C116.859 56.2698 119.293 50.9384 120.837 47.121L137.583 89.6802L141.791 100.377L166.988 164.565L156.168 158.939L146.923 154.132L100.313 129.84L90.1138 124.539L54.2274 105.843C62.8473 103.57 79.6886 97.9092 95.7058 83.3293ZM60.0839 27.2365C61.1034 27.2365 62.1229 26.7459 62.7477 25.8222C63.7672 24.3427 63.4069 22.3344 61.9236 21.3148C60.5438 20.3605 57.2208 17.6277 56.2358 12.8214C55.4769 9.13426 56.4964 6.07187 57.1901 4.55792C57.9107 2.91366 57.1901 1.00493 55.5459 0.280536C53.8978 -0.443859 51.9929 0.280537 51.2685 1.9248C50.2796 4.13248 48.7695 8.67433 49.8849 14.136C51.3336 21.2459 56.2013 25.2626 58.2403 26.6769C58.7999 27.041 59.4591 27.2365 60.0839 27.2365Z" fill="#F14947"/>
<path d="M95.7058 120.392C98.9292 120.392 101.562 122.991 101.562 126.253C101.562 127.602 101.102 128.851 100.343 129.84L90.1483 124.539C90.8727 122.136 93.1072 120.392 95.7058 120.392ZM137.583 89.6803L141.791 100.378C140.902 100.937 139.882 101.236 138.763 101.236C135.54 101.236 132.911 98.6337 132.911 95.3758C132.911 92.5779 134.915 90.2054 137.583 89.6803ZM78.4046 101.926C81.628 101.926 84.2611 104.559 84.2611 107.786C84.2611 111.01 81.6625 113.643 78.4046 113.643C75.1812 113.643 72.5519 111.044 72.5519 107.786C72.5519 104.559 75.1506 101.926 78.4046 101.926ZM125.904 114.567C129.128 114.567 131.757 117.165 131.757 120.423C131.757 123.65 129.158 126.283 125.904 126.283C122.646 126.283 120.048 123.685 120.048 120.423C120.048 117.165 122.681 114.567 125.904 114.567ZM152.78 148.337C156.003 148.337 158.632 150.94 158.632 154.198C158.632 156.171 157.678 157.885 156.199 158.969L146.923 154.132C146.958 150.905 149.553 148.337 152.78 148.337ZM113.206 62.1954C115.115 63.1498 116.43 65.1236 116.43 67.4271C116.43 70.6544 113.831 73.2875 110.577 73.2875C109.029 73.2875 107.584 72.6627 106.564 71.6739C109.163 68.416 111.367 65.2233 113.206 62.1954ZM16.5665 36.259C20.9397 34.5457 29.8547 32.1425 40.2148 34.975C53.5375 38.6276 60.5132 48.4702 62.878 52.5521C63.8017 54.0967 63.2728 56.0744 61.7282 56.9943C61.2031 57.2894 60.6435 57.4542 60.0839 57.4542C58.9647 57.4542 57.8801 56.864 57.286 55.8406C55.3159 52.4525 49.5246 44.2886 38.5053 41.2607C29.9544 38.8921 22.5533 40.9311 18.9351 42.3147C17.2564 42.974 15.3821 42.1154 14.7229 40.4712C14.0637 38.8231 14.8877 36.9144 16.5665 36.259Z" fill="#F9B53F"/>
<path d="M36.7614 118.779C36.5315 118.714 36.4012 118.514 36.4663 118.284L38.4709 109.726C38.5399 109.496 38.7353 109.365 38.9653 109.431C39.1953 109.496 39.3256 109.695 39.2604 109.925L37.2559 118.484C37.2214 118.679 37.0566 118.813 36.8611 118.813C36.8266 118.779 36.7959 118.779 36.7614 118.779ZM104.556 19.5671C104.36 19.4368 104.291 19.2068 104.425 19.0075L111.528 7.71997C111.662 7.52067 111.892 7.49 112.087 7.58582C112.286 7.71997 112.352 7.94994 112.221 8.14541L105.115 19.4368C105.05 19.5671 104.916 19.6323 104.786 19.6323C104.686 19.6016 104.621 19.6016 104.556 19.5671ZM60.5094 53.9663C58.4397 50.5743 52.3877 42.3147 41.0695 38.6927C30.1154 35.1397 20.5794 38.0679 16.992 39.4516C16.7965 39.5167 16.5665 39.4171 16.4669 39.2178C16.3672 39.0223 16.4975 38.7578 16.6968 38.6927C21.2348 36.9143 30.5102 34.4153 41.2995 37.9031C52.8476 41.6209 59.0644 50.0837 61.2031 53.5371C61.3334 53.7364 61.2683 53.9663 61.069 54.0966C61.0038 54.1311 60.9386 54.1618 60.8735 54.1618C60.7432 54.1618 60.609 54.0966 60.5094 53.9663ZM93.0114 85.6979C92.8772 85.5331 92.8772 85.2687 93.042 85.1384C99.163 79.8376 104.655 73.8163 109.324 67.2316C112.781 62.3946 115.805 57.1935 118.338 51.7931C118.438 51.5977 118.668 51.498 118.864 51.5977C119.063 51.6935 119.162 51.9235 119.063 52.1228C116.495 57.5538 113.471 62.7894 109.983 67.6915C105.28 74.3414 99.7533 80.4317 93.571 85.7324C93.502 85.7976 93.4062 85.8283 93.3065 85.8283C93.2069 85.8283 93.0765 85.7976 93.0114 85.6979ZM82.8468 111.604C82.6475 111.47 82.6169 111.209 82.7472 111.044C84.4911 108.606 83.9967 105.184 81.628 103.44C80.4782 102.585 78.9642 102.221 77.4848 102.486C75.9708 102.75 74.6562 103.605 73.8015 104.889C73.6673 105.084 73.4374 105.119 73.2419 104.988C73.0426 104.854 73.0119 104.624 73.1422 104.429C74.1273 102.945 75.6105 101.991 77.3545 101.696C79.0294 101.397 80.7733 101.796 82.1224 102.781C84.8207 104.789 85.411 108.706 83.4064 111.504C83.3374 111.604 83.2071 111.669 83.0768 111.669C83.0117 111.669 82.912 111.634 82.8468 111.604ZM158.138 156.501C157.943 156.436 157.812 156.206 157.877 155.976C158.663 153.538 157.743 150.871 155.639 149.556C153.73 148.372 151.231 148.502 149.422 149.886C149.257 150.016 148.993 149.985 148.863 149.82C148.732 149.656 148.763 149.391 148.928 149.261C151.032 147.678 153.895 147.513 156.068 148.897C158.502 150.411 159.552 153.439 158.632 156.271C158.567 156.436 158.402 156.566 158.238 156.566C158.238 156.501 158.207 156.501 158.138 156.501ZM125.904 126.647C126.134 126.647 126.299 126.448 126.299 126.253C126.299 126.019 126.1 125.854 125.904 125.854C122.911 125.854 120.477 123.42 120.477 120.423C120.477 117.43 122.911 114.992 125.904 114.992C126.134 114.992 126.299 114.796 126.299 114.597C126.299 114.402 126.1 114.202 125.904 114.202C122.451 114.202 119.653 117 119.653 120.457C119.653 123.849 122.451 126.647 125.904 126.647Z" fill="#3A5471"/>
</svg>
