<svg width="445" height="160" viewBox="0 0 445 160" fill="none" xmlns="http://www.w3.org/2000/svg">
<path d="M218.812 72.4775C215.198 64.729 212.314 57.4284 209.981 50.7847C221.206 51.609 233.074 52.1428 245.526 52.2975C256.617 52.438 267.255 52.2572 277.378 51.8383C273.628 57.484 269.785 63.784 265.968 70.8146C264.002 74.4589 262.025 78.2733 260.125 82.2694C254.001 95.0411 249.599 106.985 246.409 117.45C239.49 108.628 231.929 97.6627 224.8 84.441C222.611 80.3608 220.603 76.3647 218.812 72.4775Z" fill="#3BA27A"/>
<path d="M328.668 70.6152C326.274 67.3367 323.875 64.098 321.471 60.8182L317.769 55.7851C316.034 53.42 314.306 51.086 312.572 48.7209C322.547 47.5659 333.031 46.0727 343.929 44.1886C355.504 42.1495 366.49 39.8123 376.839 37.3321C375.538 44.5868 373.848 52.5083 371.539 60.9253L370.034 66.235C369.624 67.5352 369.221 68.8566 368.818 70.178C366.416 77.8257 363.794 84.9097 361.134 91.4233C360.245 93.5402 359.388 95.5604 358.494 97.5556C357.197 100.478 355.895 103.289 354.634 105.934C351.963 102.297 349.263 98.6553 346.603 95.0092C345.469 93.469 344.335 91.9288 343.203 90.3687C338.367 83.7954 333.505 77.1885 328.668 70.6152Z" fill="#446DB7"/>
<path d="M502.412 -9.88418L566.217 27.3246C564.452 15.9774 563.1 2.99702 562.721 -11.3421C562.363 -24.5172 562.939 -36.5615 563.937 -47.2488C556.065 -41.7419 547.68 -36.1702 538.826 -30.6488C526.253 -22.8308 514.072 -15.9418 502.412 -9.88418ZM151.701 43.1934C161.389 44.9704 170.761 46.4541 179.775 47.6593C171.519 55.9846 162.329 66.613 153.488 79.771C147.113 89.2482 142.073 98.3223 138.072 106.541C133.75 97.1561 129.353 86.2464 125.517 73.8843C121.148 59.787 118.424 46.791 116.692 35.4986C127.651 38.2983 139.35 40.9209 151.701 43.1934Z" fill="#F14947"/>
<path d="M563.287 -31.2045C563.631 -31.4428 563.71 -31.8972 563.472 -32.2411L556.725 -42.3939C556.496 -42.7365 556.043 -42.8254 555.699 -42.587C555.356 -42.3487 555.277 -41.8943 555.505 -41.5517L562.262 -31.3976C562.424 -31.1646 562.669 -31.0319 562.914 -31.0507C563.057 -31.0626 563.174 -31.1081 563.287 -31.2045ZM521.77 0.0600968C522.12 -0.147164 522.23 -0.607606 521.991 -0.951472L512.931 -15.554C512.724 -15.9039 512.273 -16.0127 511.931 -15.7843C511.591 -15.5757 511.471 -15.1166 511.709 -14.7727L520.768 -0.160221C520.91 0.0701945 521.187 0.196816 521.451 0.180521C521.543 0.172208 521.659 0.136659 521.77 0.0600968ZM562.526 -13.0437C562.876 -13.251 562.986 -13.7114 562.778 -14.0514L549.019 -37.4715C548.812 -37.8215 548.353 -37.9414 548.013 -37.7329C547.673 -37.5243 547.553 -37.0652 547.76 -36.7152L561.522 -13.3249C561.66 -13.0647 561.937 -12.9381 562.213 -12.963C562.325 -12.9688 562.44 -13.0043 562.526 -13.0437ZM564.058 6.44341C564.398 6.23487 564.508 5.77443 564.28 5.43184L541.039 -32.0596C540.84 -32.3983 540.381 -32.5182 540.037 -32.2799C539.697 -32.0714 539.587 -31.6109 539.815 -31.2683L563.046 6.22181C563.188 6.45223 563.465 6.57885 563.729 6.56255C563.821 6.55424 563.938 6.50876 564.058 6.44341ZM549.876 18.1133C550.182 17.8499 550.241 17.393 549.978 17.0863L520.486 -19.8596C520.224 -20.1762 519.767 -20.2353 519.459 -19.962C519.152 -19.6986 519.095 -19.2517 519.357 -18.935L548.849 18.0109C549.014 18.2141 549.234 18.3131 549.469 18.293C549.615 18.2514 549.762 18.2097 549.876 18.1133ZM566.625 27.9226C566.968 27.6942 567.048 27.2299 566.819 26.8873L530.691 -25.7617C530.453 -26.1056 529.999 -26.1845 529.655 -25.9462C529.322 -25.7165 529.232 -25.2535 529.47 -24.9096L565.598 27.7394C565.761 27.9625 566.011 28.0654 566.245 28.0452C566.395 28.0645 566.51 28.0289 566.625 27.9226ZM361.099 91.4591C360.95 91.4399 360.776 91.4578 360.594 91.4645C358.635 91.6154 357.213 93.3201 357.365 95.2687C357.439 96.1871 357.859 96.9988 358.47 97.5828L361.099 91.4591ZM347.997 88.2816C346.229 87.427 344.142 88.1873 343.29 89.9354C343.233 90.0594 343.162 90.2219 343.111 90.377C344.247 91.9072 345.371 93.4462 346.511 95.0175C347.796 95.0017 349.024 94.2514 349.609 93.0041C350.492 91.2499 349.764 89.1461 347.997 88.2816ZM370.003 66.241C369.692 66.3826 369.307 66.4741 368.919 66.5048C366.96 66.6557 365.302 65.1891 365.15 63.2405C365.006 61.3032 366.448 59.601 368.387 59.4475C369.662 59.3497 370.806 59.952 371.509 60.9214L370.003 66.241ZM352.112 72.6951C350.185 72.8399 348.731 74.5508 348.885 76.4894C349.027 78.4368 350.727 79.8986 352.656 79.7438C354.583 79.599 356.035 77.8981 355.883 75.9495C355.739 74.0121 354.039 72.5503 352.112 72.6951ZM357.091 45.7277C355.163 45.8824 353.711 47.5834 353.863 49.5319C354.006 51.4693 355.706 52.9311 357.634 52.7863C359.561 52.6415 361.014 50.9306 360.861 48.992C360.718 47.0447 359.05 45.5768 357.091 45.7277ZM339.497 58.0878C337.57 58.2326 336.118 59.9335 336.27 61.8821C336.414 63.8195 338.112 65.2912 340.041 65.1365C341.968 64.9917 343.42 63.2908 343.278 61.3435C343.124 59.4048 341.456 57.9369 339.497 58.0878ZM320.571 53.7941C319.266 53.8881 318.192 54.6986 317.678 55.7835L321.379 60.8265C323.21 60.5682 324.492 58.9362 324.352 57.0497C324.229 55.105 322.53 53.6432 320.571 53.7941ZM118.655 46.7199L139.903 41.568C140.279 41.4751 140.554 41.0663 140.431 40.6868C140.308 40.3074 139.939 40.0376 139.551 40.149L118.304 45.3009C117.928 45.3938 117.653 45.8026 117.776 46.182C117.861 46.5364 118.183 46.78 118.54 46.7554C118.595 46.7221 118.626 46.716 118.655 46.7199ZM120.68 56.0606L159.136 45.2045C159.515 45.0918 159.75 44.6778 159.627 44.2984C159.516 43.9103 159.112 43.6764 158.732 43.799L120.276 54.6551C119.898 54.7678 119.663 55.1818 119.775 55.5599C119.861 55.9143 120.207 56.1307 120.533 56.1022C120.568 56.0663 120.619 56.0628 120.68 56.0606ZM123.09 65.6228L179.977 48.362C180.356 48.2393 180.59 47.8353 180.469 47.4459C180.356 47.0678 179.942 46.8325 179.574 46.9466L122.687 64.2073C122.298 64.3287 122.064 64.7327 122.186 65.1221C122.302 65.4704 122.612 65.6518 122.937 65.6333C123.004 65.6622 123.029 65.625 123.09 65.6228ZM125.749 74.5909L171.569 57.3948C171.942 57.241 172.145 56.8431 171.996 56.43C171.844 56.0468 171.446 55.8439 171.033 55.9925L125.22 73.2097C124.847 73.3635 124.633 73.7701 124.792 74.1844C124.902 74.5017 125.211 74.693 125.537 74.6646C125.602 74.6325 125.684 74.6229 125.749 74.5909ZM128.752 83.4723L164.241 66.1935C164.617 66.0199 164.754 65.5832 164.58 65.2073C164.397 64.8301 163.971 64.6842 163.596 64.8578L128.117 82.1379C127.741 82.3115 127.593 82.7469 127.767 83.1228C127.911 83.4141 128.194 83.5718 128.49 83.5494C128.582 83.5411 128.667 83.5017 128.752 83.4723ZM132.014 92.1447L154.96 78.7794C155.308 78.5821 155.418 78.1217 155.242 77.7656C155.043 77.4269 154.584 77.307 154.238 77.4844L131.293 90.8497C130.943 91.057 130.833 91.5175 131.011 91.8635C131.149 92.1238 131.425 92.2504 131.69 92.2341C131.819 92.2508 131.904 92.2213 132.014 92.1447ZM134.59 98.4763L147.151 90.9901C147.491 90.7815 147.611 90.3224 147.403 89.9724C147.195 89.6324 146.736 89.5125 146.396 89.721L133.835 97.2073C133.495 97.4158 133.385 97.8763 133.582 98.2249C133.72 98.4852 134.006 98.6131 134.272 98.5868C134.388 98.5513 134.48 98.543 134.59 98.4763ZM412.177 27.5575L466.237 77.0298C468.464 69.0969 470.522 60.4353 472.186 51.0764C475.354 33.2063 476.408 16.9214 476.343 2.88547C466.393 7.43704 455.696 11.983 444.306 16.3485C433.169 20.6255 422.409 24.3352 412.177 27.5575ZM58.1565 17.2197C67.7137 20.7876 76.9993 23.9568 85.9347 26.7878C79.2154 32.9889 72.2534 39.8959 65.1986 47.5988C54.3962 59.3721 45.2855 70.95 37.6342 81.7065C33.6223 69.5338 29.8226 55.3283 26.9845 39.308C24.616 25.9843 23.349 13.6714 22.7316 2.58361C33.7203 7.5786 45.5255 12.5074 58.1565 17.2197Z" fill="#F9B53F"/>
<path d="M288.687 49.5026C294.988 49.0442 301.302 48.4766 307.732 47.8026C430.014 34.7302 521.217 -16.9172 576.194 -57.9353C576.841 -58.4071 577.745 -58.2903 578.247 -57.6398C578.717 -56.9831 578.609 -56.068 577.958 -55.5663C522.668 -14.316 430.976 37.6014 308.041 50.7208C302.53 51.3216 297.045 51.8045 291.649 52.2181C288.058 52.5014 284.461 52.7436 280.924 52.9228C162.365 59.6897 66.4051 26.3043 5.10999 -4.14703C4.39966 -4.51149 4.089 -5.38985 4.44866 -6.14121C4.81441 -6.86148 5.68284 -7.17342 6.43291 -6.80383C68.7171 24.1995 167.15 58.2175 288.687 49.5026Z" fill="#F79748"/>
</svg>
